<?xml version="1.0" encoding="UTF-8"?>
<svg id="Layer_2" data-name="Layer 2" xmlns="http://www.w3.org/2000/svg" viewBox="0 0 53.99 83.07">
  <defs>
    <style>
      .cls-1, .cls-2 {
        stroke-width: 0px;
      }

      .cls-2 {
        fill: #ed9b18;
      }
    </style>
  </defs>
  <g id="Layer_1-2" data-name="Layer 1">
    <g>
      <g>
        <path class="cls-1" d="M.1,69.87v-10.29h4.68c1.12,0,2.1.21,2.96.64.85.43,1.52,1.02,2,1.79.48.76.72,1.67.72,2.72s-.24,1.94-.72,2.71c-.48.77-1.15,1.37-2,1.79s-1.84.64-2.96.64H.1ZM2.48,67.92h2.18c.69,0,1.28-.13,1.79-.39.5-.26.9-.63,1.18-1.11.28-.48.42-1.04.42-1.69s-.14-1.22-.42-1.7c-.28-.48-.67-.84-1.18-1.1-.5-.26-1.1-.39-1.79-.39h-2.18v6.38Z"/>
        <path class="cls-1" d="M12.08,69.87v-7.91h2.19v2.24l-.31-.65c.24-.56.61-.98,1.13-1.27s1.15-.43,1.9-.43v2.12c-.1,0-.19-.02-.26-.02-.08,0-.16,0-.25,0-.63,0-1.13.18-1.52.54-.39.36-.58.91-.58,1.67v3.73h-2.29Z"/>
        <path class="cls-1" d="M19.51,60.86c-.42,0-.76-.12-1.03-.37-.26-.24-.4-.55-.4-.91s.13-.67.4-.91c.26-.25.61-.37,1.03-.37s.76.12,1.03.35c.26.23.4.53.4.89,0,.38-.13.7-.39.95-.26.25-.61.38-1.04.38ZM18.36,69.87v-7.91h2.29v7.91h-2.29Z"/>
        <path class="cls-1" d="M27.59,61.84c.63,0,1.19.12,1.68.37.5.25.88.63,1.17,1.15.28.51.43,1.17.43,1.98v4.53h-2.29v-4.18c0-.64-.14-1.11-.42-1.41-.28-.3-.67-.46-1.18-.46-.36,0-.69.08-.98.23s-.51.39-.68.7c-.16.31-.24.72-.24,1.21v3.91h-2.29v-7.91h2.19v2.19l-.41-.66c.28-.53.69-.94,1.22-1.22.53-.28,1.13-.43,1.81-.43Z"/>
        <path class="cls-1" d="M32.94,69.87v-10.91h2.29v10.91h-2.29ZM34.84,68.25l.06-2.79,3.69-3.5h2.73l-3.54,3.6-1.19.97-1.75,1.72ZM38.84,69.87l-2.68-3.32,1.44-1.78,4.01,5.1h-2.78Z"/>
      </g>
      <path class="cls-1" d="M48.06,70.03c-.75,0-1.43-.12-2.01-.37-.59-.25-1.05-.58-1.4-1s-.51-.91-.51-1.46c0-.51.11-.97.34-1.38.23-.41.58-.79,1.07-1.15.49-.36,1.11-.71,1.87-1.05.55-.25.98-.48,1.29-.68.31-.2.53-.38.66-.57.13-.18.19-.36.19-.55,0-.26-.09-.46-.26-.62-.17-.16-.42-.24-.76-.24-.35,0-.63.09-.82.26-.2.18-.29.4-.29.68,0,.15.03.29.09.43.06.14.17.3.34.49.17.18.4.41.71.7l5.43,5.03-1.25,1.46-5.98-5.56c-.34-.31-.62-.61-.82-.88s-.36-.54-.45-.81-.14-.54-.14-.82c0-.5.13-.94.4-1.32.26-.38.64-.68,1.12-.89.48-.21,1.04-.32,1.69-.32.6,0,1.11.09,1.55.29.44.19.78.46,1.03.82.25.35.37.77.37,1.26,0,.43-.11.83-.32,1.18-.22.36-.55.69-1.01,1.01s-1.05.63-1.79.96c-.5.23-.89.44-1.18.65-.29.21-.5.43-.63.64-.13.22-.19.46-.19.72,0,.25.08.47.23.66.15.2.36.35.64.46.27.11.6.16.97.16.6,0,1.15-.14,1.65-.42s.92-.7,1.27-1.25c.35-.55.6-1.23.74-2.02l1.84.57c-.21,1-.57,1.87-1.1,2.6-.53.74-1.18,1.3-1.96,1.71s-1.64.6-2.6.6Z"/>
      <g>
        <path class="cls-1" d="M0,82.95v-10.29h4.68c1.12,0,2.1.21,2.96.64.85.43,1.52,1.02,2,1.79.48.76.72,1.67.72,2.72s-.24,1.94-.72,2.71c-.48.77-1.15,1.37-2,1.79s-1.84.64-2.96.64H0ZM2.38,81h2.18c.69,0,1.28-.13,1.79-.39.5-.26.9-.63,1.18-1.11.28-.48.42-1.04.42-1.69s-.14-1.22-.42-1.7c-.28-.48-.67-.84-1.18-1.1-.5-.26-1.1-.39-1.79-.39h-2.18v6.38Z"/>
        <path class="cls-1" d="M11.98,82.95v-7.91h2.19v2.24l-.31-.65c.24-.56.61-.98,1.13-1.27s1.15-.43,1.9-.43v2.12c-.1,0-.19-.02-.26-.02-.08,0-.16,0-.25,0-.63,0-1.13.18-1.52.54-.39.36-.58.91-.58,1.67v3.73h-2.29Z"/>
        <path class="cls-1" d="M19.41,73.94c-.42,0-.76-.12-1.03-.37-.26-.24-.4-.55-.4-.91s.13-.67.4-.91c.26-.25.61-.37,1.03-.37s.76.12,1.03.35c.26.23.4.53.4.89,0,.38-.13.7-.39.95-.26.25-.61.38-1.04.38ZM18.26,82.95v-7.91h2.29v7.91h-2.29Z"/>
        <path class="cls-1" d="M24.84,82.95l-3.32-7.91h2.37l2.76,6.81h-1.18l2.87-6.81h2.21l-3.34,7.91h-2.37Z"/>
        <path class="cls-1" d="M35.19,83.07c-.9,0-1.69-.18-2.37-.53-.68-.35-1.21-.84-1.58-1.45-.37-.61-.56-1.31-.56-2.09s.18-1.5.55-2.11c.37-.61.87-1.09,1.51-1.44s1.36-.52,2.16-.52,1.47.16,2.1.49c.62.33,1.11.8,1.48,1.41.36.61.54,1.35.54,2.2,0,.09,0,.19-.01.3s-.02.22-.03.32h-6.43v-1.34h5.22l-.88.4c0-.41-.08-.77-.25-1.07-.17-.3-.4-.54-.69-.71s-.64-.26-1.03-.26-.74.09-1.04.26-.53.41-.7.72-.25.67-.25,1.09v.35c0,.43.1.81.29,1.14.19.33.46.58.81.75.35.17.76.26,1.23.26.42,0,.79-.06,1.11-.19.32-.13.61-.32.88-.57l1.22,1.32c-.36.41-.82.73-1.37.95-.55.22-1.18.33-1.9.33Z"/>
      </g>
      <circle class="cls-2" cx="49.06" cy="79.06" r="4.01"/>
      <path class="cls-2" d="M25.6,53.7H5.58C2.5,53.7,0,51.21,0,48.12v-23.06c0-1.58,2.12-2.11,2.86-.71,1.41,2.69,3.25,5.71,5.3,7.91,3.78,4.05,7.72,8.27,13.36,8.82,2.16.21,5.71,0,6.64,1.68.98,1.78.38,3.11.38,3.11h0c-.68,1.54-2,3.09-2.46,3.82-.45.73-.86,1.94-.48,4.01Z"/>
      <path class="cls-2" d="M53.99,24.31v7.13c0,1-.94,1.71-1.91,1.46-.51-.13-1.05-.2-1.6-.2-.96,0-1.75.21-2.26.37-1.59.5-2.82,1.26-3.55,1.71-.1.06-.2.12-.28.17l-.2.1-.29.16-.13.08s-.03.02-.06.03l-.15.06c-.1.04-.2.06-.34.07-.04,0-.09,0-.13,0-.27,0-.51-.07-.73-.22l-.19-.13c-.14-.12-.25-.26-.31-.4l-.13-.3s-.03-.1-.04-.26c0,0-.01-.11-.01-.13l.04-.31.02-.07.04-.11.03-.11c.02-.05.05-.11.07-.17.98-2.05,1.6-4.17,1.85-6.35.1-.86.91-1.46,1.76-1.29.5.1,1,.15,1.51.15,1.55,0,3.45-1.25,4.88-2.42.84-.68,2.1-.1,2.1.99Z"/>
      <g>
        <path class="cls-1" d="M50.83,38.36c-.21-.21-.67-.08-.94,0-1.33.41-2.35,1.22-2.97,1.53-.05.03-.1.04-.15.07-.35.22-.74.42-1.13.56-.62.24-1.28.4-1.96.45-1.64.13-3.2-.3-4.48-1.18-.04-.02-.07-.05-.11-.07-1.03-.71-1.87-1.7-2.37-2.88-.06-.09-.09-.16-.12-.25-.03-.07-.06-.15-.08-.23-.21-.57-.35-1.2-.4-1.84-.04-.44-.03-.87.02-1.3,0-.04,0-.09,0-.12.02-.13.05-.26.07-.4.03-.17.07-.32.11-.49.04-.15.08-.3.13-.44.05-.22.14-.43.24-.64.02-.05.04-.11.06-.16,1.52-3.07,1.8-6.07,1.28-9.01-.3-1.73-2.08-2.77-3.75-2.19-2.6.91-5.15,2.68-6.85,2.99-.22.04-.42.03-.64.03-6.6-.37-11.54-5.89-17.17-9.18-2.4-1.39-5.2,1.13-3.98,3.63,1.96,4.06,4.2,7.98,6.96,11.61,2.55,3.34,5.7,5.95,9.73,7.34,1.88.63,3.8.88,5.78.6.27-.03.53-.05.79-.06.12-.04.24-.04.36-.05,3.44-.28,6.5,1.98,7.34,5.21.11.4.18.8.21,1.22.14,1.69-.33,3.28-1.23,4.57-.04.04-.07.1-.11.14-.23.32-.5.61-.77.89-.02,0-.02.03-.02.03-.36.4-.71.8-1.07,1.2-.26.3-1.33,1.17-2.15,2.42-.17.27-.42.68-.27.92.08.15.27.18.48.18,2.13-.41,6.21-2.65,10.51-5.87,4.37-3.27,7.71-6.59,8.65-8.49.14-.52.02-.67-.02-.71ZM21.12,33.12c-.07.13-.23.17-.36.1-.9-.49-1.83-1.06-2.77-1.73-4.49-3.22-7.09-7.26-8.56-10.2,1.36,2.26,3.63,5.38,7.26,8.15,1.61,1.23,3.18,2.15,4.58,2.85.14.07.19.24.11.37-.09.15-.18.3-.27.45ZM22.72,34.23c-.36.03-.67-.24-.7-.59s.24-.67.59-.7.67.24.7.59-.24.67-.59.7Z"/>
        <path class="cls-1" d="M45.97,19.83l-7.66-4.15c-.55-.3-1.2-.34-1.78-.13l-8.34,3.05c-2.07.76-4.38.47-6.2-.77l-9.39-6.4c-.99-.68-1.25-2.03-.57-3.02h0c.68-.99,2.03-1.25,3.02-.57l7.54,5.14c1.82,1.24,4.13,1.53,6.2.77l8.08-2.95c.59-.21,1.23-.17,1.78.13l9.38,5.09c1.05.57,1.45,1.89.87,2.95h0c-.57,1.06-1.89,1.45-2.95.87Z"/>
        <circle class="cls-1" cx="6.95" cy="3.87" r="3.87"/>
      </g>
    </g>
  </g>
</svg>