<?xml version="1.0" encoding="UTF-8"?>
<svg version="1.1" xmlns="http://www.w3.org/2000/svg" width="750" height="1155">
<path d="M0 0 C8.88033583 5.60600657 17.52168766 11.5544462 26.12719727 17.57080078 C27.20783447 18.32296875 27.20783447 18.32296875 28.31030273 19.09033203 C37.30082514 25.35251075 46.16389726 31.77501786 54.97314453 38.28930664 C63.30838626 44.45249289 71.69259021 50.54430948 80.12719727 56.57080078 C80.92770508 57.14330566 81.72821289 57.71581055 82.55297852 58.30566406 C113.56717798 80.42464923 146.46075391 101.32452798 183.12719727 112.57080078 C184.28566162 112.92996582 184.28566162 112.92996582 185.4675293 113.29638672 C224.80535056 125.23600749 250.09990671 116.72137768 285.5456543 98.82128906 C337.61132155 72.53081173 337.61132155 72.53081173 357.12719727 78.57080078 C367.64372793 82.82033766 376.41131204 90.1962062 381.13500977 100.63720703 C383.2109538 106.77513606 384.2651692 113.1615177 385.12719727 119.57080078 C385.22291016 120.27551514 385.31862305 120.98022949 385.41723633 121.70629883 C387.85362034 142.39591465 387.55465178 165.21564825 383.12719727 185.57080078 C382.82918213 186.94486084 382.82918213 186.94486084 382.52514648 188.34667969 C379.0403003 203.84967707 373.79968516 218.3755801 367.20141602 232.80908203 C355.78647798 257.84305586 353.33653466 284.83429858 362.93969727 310.88330078 C372.71867323 336.01499712 390.50942701 354.39811732 414.79907227 365.77783203 C425.08512807 370.26192435 436.88931906 373.27727411 448.12719727 373.57080078 C448.79750977 373.60947266 449.46782227 373.64814453 450.15844727 373.68798828 C472.7739775 374.44746504 493.16207794 366.13751313 512.12719727 354.57080078 C512.78413574 354.17038574 513.44107422 353.7699707 514.11791992 353.35742188 C515.07577393 352.77275146 515.07577393 352.77275146 516.05297852 352.17626953 C544.95352323 334.54002254 544.95352323 334.54002254 557.18969727 335.69580078 C560.12719727 336.57080078 560.12719727 336.57080078 562.12719727 339.57080078 C563.0298257 348.05867516 558.95513874 354.0072672 554.12719727 360.57080078 C553.37954102 361.60333984 552.63188477 362.63587891 551.86157227 363.69970703 C546.63458656 370.77176303 540.89123371 377.25968036 534.86157227 383.65283203 C532.73916123 385.91774781 530.6944967 388.20374799 528.68969727 390.57080078 C521.85755693 398.45790396 514.2938538 405.8938579 506.33813477 412.64111328 C503.88550107 414.78175117 501.51676847 416.99888407 499.14428711 419.22753906 C493.55210297 424.47944618 487.88848362 429.53385183 481.89672852 434.33251953 C479.35971109 436.38288763 476.87395296 438.47865838 474.39697266 440.6003418 C468.1187689 445.97460349 461.67836381 451.09326083 455.0871582 456.07910156 C452.86420198 457.77096286 450.65577761 459.48090837 448.44750977 461.19189453 C435.631975 471.0887851 422.50653975 480.45296942 409.12719727 489.57080078 C408.07242188 490.29323975 408.07242188 490.29323975 406.99633789 491.03027344 C389.29096772 503.13616237 370.88355363 514.17905796 352.12719727 524.57080078 C350.9090332 525.2458667 350.9090332 525.2458667 349.66625977 525.93457031 C306.13216825 549.87655956 306.13216825 549.87655956 289.12719727 547.57080078 C287.40063477 546.23095703 287.40063477 546.23095703 286.12719727 544.57080078 C285.86140564 531.54701111 299.06513457 519.71995241 307.25219727 510.75830078 C307.98817139 509.94945435 307.98817139 509.94945435 308.73901367 509.12426758 C311.13412656 506.54112189 313.55943864 504.14671186 316.28735352 501.91455078 C318.61495128 499.99356226 320.51127085 498.18047023 322.43969727 495.88330078 C325.12456563 492.7361372 327.85163329 489.63852938 330.62719727 486.57080078 C331.76995117 485.30042969 331.76995117 485.30042969 332.93579102 484.00439453 C334.27808754 482.51375151 335.62366803 481.02604745 336.97485352 479.54345703 C356.97614376 457.2641155 365.43781992 432.30796083 364.31811523 402.53125 C362.79619263 378.93171862 350.5343269 355.41974745 333.12719727 339.57080078 C312.06548179 321.65031916 286.49613284 314.18886499 259.12719727 315.57080078 C256.18070271 315.81724413 253.24933414 316.14864943 250.31469727 316.50830078 C193.87364462 323.42122627 137.97311735 305.9294456 93.00219727 271.32080078 C91.03521437 269.74822577 89.07628144 268.16550601 87.12719727 266.57080078 C86.21196289 265.84634766 85.29672852 265.12189453 84.35375977 264.37548828 C68.80508635 251.94545996 53.54117263 237.86598233 41.21313477 222.21533203 C39.0225267 219.43810046 36.73789919 216.75947391 34.43969727 214.07080078 C-0.16981242 172.62476239 -27.8291754 124.07030304 -52.4777832 76.25488281 C-53.83143144 73.65040107 -55.20788821 71.05968911 -56.59545898 68.47314453 C-60.61170756 60.97953075 -64.50360124 53.47810418 -67.93530273 45.69580078 C-68.22252197 45.04748291 -68.50974121 44.39916504 -68.80566406 43.73120117 C-72.78741036 34.45440925 -73.47348472 24.23858914 -70.12280273 14.63330078 C-68.45774509 10.59377713 -66.53100183 7.05968709 -63.87280273 3.57080078 C-63.31592773 2.74580078 -62.75905273 1.92080078 -62.18530273 1.07080078 C-58.84864207 -2.53639994 -55.10799364 -4.97157652 -50.87280273 -7.42919922 C-50.15479492 -7.84814453 -49.43678711 -8.26708984 -48.69702148 -8.69873047 C-31.46331114 -17.12211566 -14.82915001 -9.17360712 0 0 Z M-0.87280273 124.57080078 C-0.54280273 125.56080078 -0.21280273 126.55080078 0.12719727 127.57080078 C0.12719727 126.58080078 0.12719727 125.59080078 0.12719727 124.57080078 C-0.20280273 124.57080078 -0.53280273 124.57080078 -0.87280273 124.57080078 Z M1.12719727 127.57080078 C2.68956567 131.94210812 4.92156545 135.7801426 7.37719727 139.69580078 C7.80830811 140.38375732 8.23941895 141.07171387 8.68359375 141.78051758 C16.90803532 154.68157413 26.2591258 166.88985642 36.12719727 178.57080078 C36.54269333 179.06831848 36.95818939 179.56583618 37.38627625 180.07843018 C44.55146628 188.6561599 52.03190891 196.79475154 59.96386719 204.66821289 C61.69974458 206.39328555 63.42454817 208.12892069 65.14868164 209.86572266 C71.83341384 216.55877001 78.69021052 222.71279212 86.12719727 228.57080078 C87.37098223 229.59463219 88.61222788 230.6215636 89.84985352 231.65283203 C115.47628569 254.10585916 115.47628569 254.10585916 145.12719727 266.63330078 C148.3148061 264.93988359 149.98596876 261.95247788 151.12719727 258.57080078 C151.01835226 256.55669284 151.01835226 256.55669284 150.12719727 254.57080078 C148.25712999 253.09271203 148.25712999 253.09271203 145.84985352 251.94189453 C144.50431396 251.23407837 144.50431396 251.23407837 143.1315918 250.51196289 C142.1607666 250.01575439 141.18994141 249.5195459 140.18969727 249.00830078 C138.16570596 247.93888926 136.14359346 246.86591496 134.12329102 245.78955078 C133.10992676 245.25072266 132.0965625 244.71189453 131.05249023 244.15673828 C106.56098859 230.87875508 83.93134472 214.0292886 63.12719727 195.57080078 C62.16942383 194.72517578 61.21165039 193.87955078 60.22485352 193.00830078 C48.21384919 182.20004449 36.14644565 170.94852239 26.18579102 158.19189453 C24.24090941 155.71558417 22.21509643 153.32719084 20.15576172 150.94580078 C14.96395293 144.93489813 10.1755754 138.71333929 5.56713867 132.24365234 C4.44163505 130.67068936 3.28735014 129.11838479 2.12719727 127.57080078 C1.79719727 127.57080078 1.46719727 127.57080078 1.12719727 127.57080078 Z M161.12719727 268.57080078 C160.2105306 272.07080078 160.2105306 272.07080078 161.12719727 275.57080078 C163.61119524 278.72416703 163.61119524 278.72416703 167.12719727 280.57080078 C170.78955747 280.64404799 172.49598722 280.00268134 175.50219727 277.94580078 C177.80637211 274.57816063 177.75847212 272.56887486 177.12719727 268.57080078 C174.6812084 265.18958087 173.23423167 263.80143295 169.12719727 262.94580078 C165.02016286 263.80143295 163.57318614 265.18958087 161.12719727 268.57080078 Z " fill="#000000" transform="translate(145.872802734375,195.42919921875)"/>
<path d="M0 0 C5.1239497 5.55799068 8.46744504 12.28806386 11.9375 18.9375 C22.22993206 38.27007578 33.52789911 56.9941872 46 75 C46.43119141 75.62406738 46.86238281 76.24813477 47.30664062 76.89111328 C58.63981942 93.2162875 70.93356449 109.37501149 85.2265625 123.23046875 C86.98111954 124.98116113 88.58391357 126.79839696 90.1875 128.6875 C93.97025731 133.09636887 98.10003772 137.12716743 102.2277832 141.20825195 C105.80387104 144.75948787 109.19250063 148.40312728 112.46484375 152.23828125 C116.90304375 157.33148278 121.86365421 161.79352153 126.9765625 166.19140625 C129.01297312 168.01159567 130.91084279 169.91512879 132.8125 171.875 C136.67174919 175.78690951 140.8160839 179.22590285 145.1015625 182.66015625 C147.99058194 184.99239701 150.8047127 187.39787046 153.625 189.8125 C177.00812462 209.29339554 203.75006592 224.14422612 232.8125 233.1875 C233.55725586 233.42549316 234.30201172 233.66348633 235.06933594 233.90869141 C250.61863312 238.5682561 266.70262211 239.60119565 282.8125 240.5 C339.51245614 243.68165998 339.51245614 243.68165998 353.8125 258.6875 C362.80395394 269.75716736 365.42140593 283.85615425 364.89453125 297.7890625 C362.58309211 315.79109438 348.5712744 332.12331555 338.25 346.3125 C323.20306605 367.00691392 318.51261046 384.43186324 320.51049805 409.78759766 C320.64744331 411.53515854 320.64744331 411.53515854 320.78715515 413.31802368 C320.85739395 414.20307587 320.92763275 415.08812805 321 416 C284.45548011 416.09168013 247.91098049 416.16210186 211.36636916 416.20426132 C207.04584097 416.20926377 202.72531301 416.2144411 198.40478516 416.21972656 C197.54469445 416.2207758 196.68460375 416.22182505 195.7984497 416.22290608 C181.89649174 416.24028177 167.99460037 416.27180373 154.09268183 416.30861118 C139.81377203 416.34609973 125.53489695 416.36825253 111.25593996 416.37635398 C102.45457158 416.38182539 93.65339145 416.39906702 84.85208106 416.43166587 C78.80568421 416.45291161 72.75938379 416.45917745 66.71295238 416.45400551 C63.23143325 416.45145925 59.75024162 416.45518858 56.26878166 416.4768219 C42.29007054 416.55086906 29.33617349 416.5539186 16 412 C15.04645882 411.68895451 14.09291763 411.37790901 13.11048126 411.0574379 C-5.04068738 404.84855937 -18.99614245 389.75482287 -27.8125 373.25 C-35.82880795 355.72091984 -35.58472164 338.48545031 -35.52289867 319.58548987 C-35.51377142 315.45128463 -35.52785506 311.31714472 -35.53881836 307.18295288 C-35.55652279 299.10678187 -35.55280109 291.03076029 -35.5411678 282.95458364 C-35.53210739 276.39132118 -35.53092069 269.82810038 -35.53526306 263.26483345 C-35.53587599 262.32817489 -35.53648893 261.39151633 -35.53712043 260.42647417 C-35.5383994 258.52335582 -35.53969626 256.62023749 -35.5410108 254.71711916 C-35.55239144 236.912004 -35.53933955 219.10697149 -35.51780933 201.30186988 C-35.49991422 186.02973726 -35.50306717 170.75772617 -35.52148438 155.4855957 C-35.54289013 137.72706543 -35.55132076 119.96860727 -35.53903532 102.2100659 C-35.53776117 100.3169855 -35.53650369 98.42390509 -35.53526306 96.53082466 C-35.53433741 95.13383177 -35.53433741 95.13383177 -35.53339306 93.7086168 C-35.52994124 87.14988824 -35.53576431 80.59120552 -35.54518127 74.03248405 C-35.55639817 66.04517737 -35.55336661 58.05802793 -35.5320583 50.07073926 C-35.52154778 45.99686177 -35.51742636 41.92324649 -35.53065491 37.84937096 C-35.54258312 34.11962369 -35.53600982 30.39038151 -35.5147447 26.66068 C-35.50816791 24.67433995 -35.52121018 22.68796478 -35.53497362 20.70166153 C-35.46480656 12.73081239 -34.6287011 8.17004579 -29.32421875 2.07421875 C-20.69482575 -5.23708081 -9.63474291 -6.31395826 0 0 Z " fill="#ED9B18" transform="translate(35,331)"/>
<path d="M0 0 C1.15628906 -0.03738281 2.31257813 -0.07476562 3.50390625 -0.11328125 C12.24493682 0.83286804 19.16839761 5.09394048 26.1875 10.125 C27.85250136 11.29088348 29.5178813 12.45622644 31.18359375 13.62109375 C32.47305908 14.52964111 32.47305908 14.52964111 33.78857422 15.45654297 C38.24483137 18.57879798 42.74942275 21.62965134 47.25 24.6875 C49.1108642 25.95545459 50.97154011 27.22368556 52.83203125 28.4921875 C53.75838379 29.12350586 54.68473633 29.75482422 55.63916016 30.40527344 C59.32406579 32.91674463 63.0085253 35.42886972 66.69287109 37.94116211 C68.5276943 39.19217793 70.36265602 40.44299064 72.19775391 41.69360352 C76.72200427 44.77715515 81.24418882 47.86364079 85.76171875 50.95703125 C90.30738978 54.06855988 94.86158233 57.16731871 99.41992188 60.26025391 C101.54645186 61.70650076 103.67021179 63.15625592 105.79101562 64.61083984 C127.64586888 79.5898411 147.93010715 92.37999032 175.375 92.5625 C176.11556641 92.583125 176.85613281 92.60375 177.61914062 92.625 C195.31051148 92.74284427 211.37886948 86.08294712 227.70901871 80.0425148 C231.05683821 78.80724521 234.40990366 77.5863794 237.76245117 76.36401367 C243.27131806 74.35350732 248.7771544 72.33491606 254.28076172 70.31005859 C262.08918386 67.43752724 269.90491883 64.58534804 277.72265625 61.73828125 C286.62591167 58.49431439 295.52784438 55.24681169 304.42578125 51.98828125 C305.77954613 51.49283562 305.77954613 51.49283562 307.16065979 50.98738098 C308.42945229 50.52243477 308.42945229 50.52243477 309.72387695 50.0480957 C310.51938461 49.7565863 311.31489227 49.4650769 312.13450623 49.16473389 C314.38684074 48.3312467 316.63066124 47.47735028 318.87451172 46.62133789 C322.11889225 45.42953824 324.82514068 44.75364086 328.25 44.4375 C329.62091797 44.28667969 329.62091797 44.28667969 331.01953125 44.1328125 C340.15041678 44.6128362 347.81714642 48.19852994 355.625 52.6875 C357.55822403 53.77019168 359.49183142 54.85219906 361.42578125 55.93359375 C362.41529785 56.49159668 363.40481445 57.04959961 364.42431641 57.62451172 C369.35730899 60.3879788 374.33584392 63.06622585 379.3125 65.75 C381.33088642 66.84215736 383.34911487 67.9346067 385.3671875 69.02734375 C386.36975586 69.56987793 387.37232422 70.11241211 388.40527344 70.67138672 C394.4153434 73.92417982 400.42383251 77.17989207 406.43261719 80.43505859 C411.45716003 83.15689061 416.48208494 85.87801229 421.5078125 88.59765625 C445.21056922 101.42599576 445.21056922 101.42599576 456.21875 107.46484375 C459.6413213 109.34077389 463.07835539 111.18444492 466.53125 113.00390625 C477.94318833 119.06907235 487.13961772 124.44369642 491.4375 137.3125 C493.73273334 145.15454724 492.58952213 152.90289573 489.4375 160.3125 C484.74936783 168.1529969 478.32846524 173.8530352 469.4375 176.3125 C456.41021514 178.26587458 447.63085928 174.49481098 436.4375 168.3125 C434.73122345 167.3957294 433.024161 166.48042033 431.31640625 165.56640625 C426.64699699 163.05152194 422.00343419 160.49179733 417.36279297 157.92431641 C412.4032612 155.19164834 407.41946761 152.50397713 402.4375 149.8125 C395.70048489 146.16794732 388.96835821 142.51483166 382.24682617 138.84179688 C377.64602972 136.32778277 373.04224073 133.81928111 368.4375 131.3125 C366.78258545 130.41120361 366.78258545 130.41120361 365.09423828 129.49169922 C361.60660467 127.59471096 358.1161595 125.70299022 354.625 123.8125 C353.54557129 123.22476807 352.46614258 122.63703613 351.35400391 122.03149414 C337.36035142 114.47028422 329.07705701 110.86208653 313.4375 115.3125 C309.38939507 116.62011225 305.3979805 118.06146445 301.40625 119.53125 C300.27595367 119.94194229 299.14565735 120.35263458 297.98110962 120.77577209 C294.93004764 121.88568939 291.88097726 123.00087094 288.83274078 124.11851883 C285.63216261 125.29047598 282.42896795 126.4552392 279.22607422 127.62084961 C271.94593019 130.27184825 264.66951697 132.9329884 257.39390564 135.5963974 C254.20712592 136.76285347 251.02005822 137.92852204 247.83300781 139.09423828 C246.60886169 139.54203644 245.38471558 139.98983459 244.12347412 140.45120239 C241.71258561 141.33304829 239.30165694 142.2147844 236.89068604 143.09640503 C231.27291853 145.15083351 225.65594467 147.2073566 220.04101562 149.26953125 C214.51179142 151.29856595 208.97773446 153.31372679 203.4375 155.3125 C202.21385742 155.7544873 200.99021484 156.19647461 199.72949219 156.65185547 C176.60575327 164.71147436 150.49886229 163.69828948 128.16796875 153.6328125 C126.81638672 152.97925781 126.81638672 152.97925781 125.4375 152.3125 C124.60863281 151.91804687 123.77976562 151.52359375 122.92578125 151.1171875 C114.13580762 146.62124387 106.15998443 140.75898016 98.0703125 135.13623047 C93.60626141 132.04401407 89.11451506 128.99257095 84.625 125.9375 C82.76423598 124.66939838 80.90355943 123.40116842 79.04296875 122.1328125 C78.11661621 121.50149414 77.19026367 120.87017578 76.23583984 120.21972656 C71.63594649 117.08463959 67.03675511 113.94852319 62.4375 110.8125 C60.60417011 109.56249495 58.77083678 108.31249495 56.9375 107.0625 C45.9375 99.5625 34.9375 92.0625 23.9375 84.5625 C23.0290332 83.9432666 22.12056641 83.3240332 21.18457031 82.68603516 C19.36034043 81.44188833 17.53676699 80.19677842 15.71386719 78.95068359 C10.99630982 75.72772266 6.26683328 72.52474652 1.515625 69.3515625 C-26.65219324 50.48807794 -26.65219324 50.48807794 -29.5625 39.3125 C-30.92559629 29.63451634 -30.57170756 20.38547582 -24.5625 12.3125 C-18.19491187 4.33755953 -10.20189999 0.21277289 0 0 Z " fill="#000000" transform="translate(191.5625,103.6875)"/>
<path d="M0 0 C4.35380699 2.86955461 7.75208834 5.94558149 9.75 10.8125 C10.00447559 13.03707695 10.00447559 13.03707695 10.01069641 15.50509644 C10.01778122 16.44430939 10.02486603 17.38352234 10.03216553 18.35119629 C10.02968811 19.37467163 10.02721069 20.39814697 10.0246582 21.45263672 C10.02976913 22.53598297 10.03488007 23.61932922 10.04014587 24.73550415 C10.05405983 28.32112128 10.05308361 31.90654656 10.05078125 35.4921875 C10.05466738 37.9831652 10.05900188 40.47414223 10.06376648 42.96511841 C10.07123273 48.18884427 10.07093459 53.41250255 10.06567383 58.63623047 C10.06030389 64.00023597 10.06733905 69.36405267 10.08618164 74.72802734 C10.10863831 81.20359383 10.11643438 87.67900259 10.11250877 94.15460587 C10.11302228 96.62255527 10.11826549 99.09050838 10.12832069 101.55843735 C10.14065771 105.01033247 10.13390913 108.46168773 10.12231445 111.91357422 C10.12995819 112.9330011 10.13760193 113.95242798 10.14547729 115.00274658 C10.09784767 121.41862476 9.34750112 125.91038788 4.91796875 130.859375 C-0.87022313 135.83699169 -5.24635071 138.20624513 -13.1171875 138.01171875 C-16.14494186 137.72890653 -19.02424369 137.03458898 -21.9765625 136.32421875 C-55.08777517 128.87135129 -88.61332908 144.90982794 -116.20556641 161.58544922 C-119.48874946 163.55598636 -122.80337412 165.47018758 -126.125 167.375 C-127.23617187 168.01566406 -128.34734375 168.65632812 -129.4921875 169.31640625 C-135.51037777 172.58123185 -141.54371154 172.61290291 -148.25 171.8125 C-153.27209095 169.85424583 -157.02404531 166.81556021 -159.8125 162.1875 C-163.18943593 153.43762359 -161.55081393 145.29916117 -157.88011169 136.93333435 C-157.3091883 135.6683702 -156.73256315 134.40596596 -156.15063477 133.14602661 C-154.59545962 129.76413194 -153.12601354 126.3454748 -151.65625 122.92578125 C-151.21230896 121.89574226 -151.21230896 121.89574226 -150.75939941 120.84489441 C-142.49879989 101.45776428 -137.41170958 80.43611471 -134.4921875 59.59375 C-132.28612103 43.88003417 -132.28612103 43.88003417 -126.25 38.8125 C-118.12155758 32.88331148 -110.58975738 33.3447861 -100.9375 34.8125 C-71.55792219 38.87253705 -48.20831699 24.03813061 -25.42578125 6.98046875 C-23.47934139 5.49849301 -21.54309087 4.00286361 -19.625 2.484375 C-13.48805761 -1.83570944 -7.01509164 -2.56320656 0 0 Z " fill="#ED9B18" transform="translate(740.25,321.1875)"/>
<path d="M0 0 C18.995625 -0.12375 18.995625 -0.12375 38.375 -0.25 C44.3157251 -0.30462402 44.3157251 -0.30462402 50.37646484 -0.36035156 C55.30981445 -0.37841797 55.30981445 -0.37841797 57.63809204 -0.3817749 C59.22318042 -0.38781413 60.80825352 -0.40166017 62.39321899 -0.42230225 C86.41153312 -0.71876205 108.24083329 5.03616728 126.25 21.6875 C140.25742186 36.61490084 145.61025783 55.08223211 145.25 75.32421875 C144.18543137 90.97670434 139.69104688 104.52141604 130 117 C129.53980469 117.62519531 129.07960937 118.25039063 128.60546875 118.89453125 C116.66633411 134.13671178 96.46368474 141.08341276 77.97064209 143.60296631 C70.79953323 144.32002208 63.64511405 144.24487147 56.4453125 144.1953125 C54.99015456 144.19236169 53.53499448 144.19032767 52.07983398 144.18920898 C46.76152303 144.17884191 41.4432579 144.15092034 36.125 144.125 C24.20375 144.08375 12.2825 144.0425 0 144 C0 96.48 0 48.96 0 0 Z M34 28 C34 57.04 34 86.08 34 116 C65.43293129 117.5064925 65.43293129 117.5064925 94 107 C94.9075 106.4225 95.815 105.845 96.75 105.25 C106.25094516 95.74905484 110.33078473 84.61243914 110.4375 71.3125 C110.25109741 59.51569284 106.97170617 49.64686983 98.99609375 40.76953125 C81.04930818 23.65747989 57.9370091 28 34 28 Z " fill="#000000" transform="translate(1,828)"/>
<path d="M0 0 C101.65483294 0 101.65483294 0 126.625 23.25 C141.77869433 39.00002026 144.54898596 57.90342898 144.2421875 78.71875 C143.68297137 97.5438474 135.39423999 113.30674636 121.75 126.1875 C112.29675046 134.18888528 101.83497897 138.78213912 90 142 C89.05329437 142.26358055 89.05329437 142.26358055 88.08746338 142.53248596 C79.34395838 144.62734801 70.45057508 144.25123844 61.5234375 144.1953125 C59.9450698 144.19236608 58.36670013 144.19032933 56.78833008 144.18920898 C50.98385661 144.17879106 45.17942518 144.15086867 39.375 144.125 C26.38125 144.08375 13.3875 144.0425 0 144 C0 96.48 0 48.96 0 0 Z M34 29 C34 57.71 34 86.42 34 116 C68.35388935 118.13922305 68.35388935 118.13922305 97.99609375 104.1875 C107.30933405 94.25337702 110.5105067 82.68101463 110.24609375 69.3359375 C109.3805043 57.60239163 105.3509783 47.81739998 96.75 39.6875 C78.38269713 24.40713879 58.31871236 29 34 29 Z " fill="#000000" transform="translate(0,1009)"/>
<path d="M0 0 C0.99064453 -0.020625 1.98128906 -0.04125 3.00195312 -0.0625 C14.66188794 -0.12366687 24.69236043 3.15357148 33.6328125 10.80859375 C39.49055691 16.94597923 41.98712522 24.88786805 42.3125 33.25 C41.87964343 43.40245421 38.397929 50.5965507 31.3984375 57.88671875 C27.84449104 61.13466076 24.06404694 63.93388902 20.09765625 66.65625 C17.75418227 68.19132985 17.75418227 68.19132985 15.8125 70.25 C20.60596674 75.17828299 25.6020706 79.76843974 30.8125 84.25 C32.31361215 85.56122788 33.81364686 86.87369046 35.3125 88.1875 C35.9828125 88.77402344 36.653125 89.36054687 37.34375 89.96484375 C37.8284375 90.38894531 38.313125 90.81304688 38.8125 91.25 C41.97282658 84.75288191 44.08318234 78.25897689 45.8125 71.25 C51.67174763 71.90102751 57.06933561 73.36395459 62.6875 75.125 C63.55375 75.38152344 64.42 75.63804687 65.3125 75.90234375 C66.13492188 76.15886719 66.95734375 76.41539062 67.8046875 76.6796875 C68.55089355 76.90897949 69.29709961 77.13827148 70.06591797 77.37451172 C71.8125 78.25 71.8125 78.25 72.8125 81.25 C72.24093432 83.73869225 71.59538541 86.07802911 70.8125 88.5 C70.48052612 89.54897461 70.48052612 89.54897461 70.1418457 90.61914062 C67.66405093 98.1547456 64.30278638 105.13255326 60.8125 112.25 C65.7625 116.87 70.7125 121.49 75.8125 126.25 C74.73057492 130.57770031 73.67171372 131.82358268 70.6875 135 C69.47900391 136.30324219 69.47900391 136.30324219 68.24609375 137.6328125 C67.44300781 138.49648438 66.63992188 139.36015625 65.8125 140.25 C64.45186547 141.78596131 63.09692395 143.32700151 61.75 144.875 C61.18152344 145.52726563 60.61304688 146.17953125 60.02734375 146.8515625 C59.62644531 147.31304688 59.22554687 147.77453125 58.8125 148.25 C52.48717725 143.85502098 47.14001543 138.79949524 41.8125 133.25 C40.47058594 134.04664063 40.47058594 134.04664063 39.1015625 134.859375 C18.30263308 147.0792517 -3.04205328 151.60190015 -26.82421875 146.15234375 C-39.71787667 142.69306967 -51.39367003 135.83978754 -58.43359375 124.1875 C-62.91829058 115.00085459 -62.75439098 102.95130022 -59.6875 93.3125 C-54.3760567 81.05532315 -43.81204944 72.31498232 -32.1875 66.25 C-33.67696145 63.02653866 -35.52951422 60.29907736 -37.625 57.4375 C-43.92553769 48.4255043 -46.08702656 40.06822555 -44.8203125 29.05859375 C-42.59471212 18.30152525 -36.79238579 11.63574682 -27.74609375 5.6875 C-18.95694371 0.74947372 -9.88308285 0.05045607 0 0 Z M-12.5625 27.5625 C-15.32875481 32.13745988 -15.50774515 34.92632006 -14.25 40.125 C-12.16339968 45.22339134 -8.2278308 48.64153354 -4.1875 52.25 C2.77710341 49.14080205 9.1688716 45.37406031 13.375 38.8125 C14.00938609 35.09681002 14.01477684 31.81363494 12.8125 28.25 C9.48938858 24.24522469 7.0007734 22.9922995 1.875 22.25 C-4.2166238 21.93854856 -8.10110719 23.21851226 -12.5625 27.5625 Z M-24.1875 91.25 C-28.30310815 96.08183087 -29.56210977 100.73032699 -29.4609375 106.97265625 C-28.8585733 111.98948954 -25.73394703 115.0114925 -21.9375 118 C-14.07181164 123.17173167 -4.29689196 123.36449627 4.74609375 121.71484375 C10.5247801 120.2481314 15.59012297 118.10752705 20.8125 115.25 C19.46693833 112.21867649 18.00904869 110.24073698 15.57421875 108 C14.92485352 107.39687988 14.27548828 106.79375977 13.60644531 106.17236328 C12.91131836 105.5379834 12.21619141 104.90360352 11.5 104.25 C10.78811523 103.59370605 10.07623047 102.93741211 9.34277344 102.26123047 C7.87986649 100.91278637 6.41517663 99.56627401 4.94873047 98.22167969 C2.94944054 96.37639221 0.97267839 94.51055819 -0.99609375 92.6328125 C-1.5789917 92.08109375 -2.16188965 91.529375 -2.76245117 90.9609375 C-3.8546125 89.92687833 -4.94225801 88.88802227 -6.0246582 87.84375 C-13.78908968 80.5611786 -17.2482551 84.73796318 -24.1875 91.25 Z " fill="#000000" transform="translate(674.1875,825.75)"/>
<path d="M0 0 C1.51787109 0.74636719 1.51787109 0.74636719 3.06640625 1.5078125 C17.52799872 9.29064699 25.72174229 20.39181999 31.01953125 35.66796875 C35.3571997 50.40912885 33.2103136 66.34016605 26.25 79.9375 C18.03302424 93.63930707 5.28765272 103.03615705 -10.125 107.3125 C-28.0736615 110.66377611 -44.29033687 106.66172248 -59.28125 96.4453125 C-71.34284589 86.82475387 -78.2551788 72.06504154 -80 57 C-81.44881169 42.51188308 -76.76422429 27.80257979 -67.96484375 16.3515625 C-51.90688913 -2.51016198 -23.135481 -11.48280848 0 0 Z " fill="#ED9B18" transform="translate(705,1047)"/>
<path d="M0 0 C10.89 0 21.78 0 33 0 C33.33 27.72 33.66 55.44 34 84 C41.425 76.575 41.425 76.575 49 69 C53.1875 65.3125 53.1875 65.3125 54.98046875 63.80078125 C58.31798512 60.82477535 61.41354992 57.60638036 64.5546875 54.42578125 C68.53731546 50.41259604 72.68436971 46.65350619 77 43 C77.33 42.67 77.66 42.34 78 42 C80.95705321 41.91131701 83.89065056 41.88479704 86.84765625 41.90234375 C88.17729652 41.90446617 88.17729652 41.90446617 89.53379822 41.90663147 C92.37673254 41.91224785 95.21958931 41.92480309 98.0625 41.9375 C99.98502491 41.94251289 101.90755104 41.94707616 103.83007812 41.95117188 C108.55341549 41.96222259 113.27669458 41.97949817 118 42 C114.17824388 46.57371945 110.22037012 50.9104695 105.97265625 55.08984375 C105.42065048 55.6380629 104.86864471 56.18628204 104.2999115 56.75111389 C101.97274303 59.06216815 99.63959352 61.36714766 97.30688477 63.67260742 C88.56511814 72.29167375 88.56511814 72.29167375 80.35888672 81.41625977 C78.36205983 83.74349944 76.20052249 85.86616001 74 88 C75.50059786 92.66852667 78.22511984 96.03658005 81.3125 99.75 C82.40534145 101.08846109 83.4964248 102.42835916 84.5859375 103.76953125 C85.15022461 104.46385254 85.71451172 105.15817383 86.29589844 105.87353516 C89.07693461 109.34385393 91.75440232 112.89127947 94.4375 116.4375 C98.78891263 122.17523813 103.24420005 127.80850591 107.8125 133.375 C122 150.67620932 122 150.67620932 122 153 C116.50536197 153.32411652 111.01639606 153.55841718 105.5144043 153.71411133 C103.64850906 153.77905267 101.78326431 153.86745443 99.91967773 153.98071289 C84.92561099 154.86838735 84.92561099 154.86838735 80.11608887 151.796875 C76.31980921 148.38308853 73.69431331 144.30195936 71 140 C69.96568251 138.66881556 68.91538178 137.34954839 67.8359375 136.0546875 C67.01323126 134.99664864 66.19281939 133.93682071 65.375 132.875 C61.25850273 127.58023265 57.05824354 122.37043117 52.77734375 117.20703125 C51 115 51 115 49 112 C47.65723561 112.64746121 46.32666765 113.32016533 45 114 C44.08863281 114.44988281 43.17726563 114.89976562 42.23828125 115.36328125 C38.54655289 117.82279053 35.84962793 119.95648895 34 124 C32.26018597 133.57603808 32.86907999 143.31191953 33 153 C22.11 153 11.22 153 0 153 C0 102.51 0 52.02 0 0 Z " fill="#000000" transform="translate(457,819)"/>
<path d="M0 0 C0.84304687 0.05929688 1.68609375 0.11859375 2.5546875 0.1796875 C15.47197392 1.7512268 28.69182453 9.25451873 36.8515625 19.2734375 C46.97372513 32.92758879 50.79140965 47.4015722 48.5703125 64.26171875 C45.58240963 79.55166615 37.59762415 91.32706767 24.9921875 100.140625 C10.73149283 109.00236216 -4.32180025 110.77918853 -20.44140625 107.03125 C-34.15937523 103.05590004 -45.40196529 94.07544802 -53 82 C-60.45337657 67.90598207 -61.95909262 52.10598143 -57.375 36.8125 C-52.31944641 23.18606166 -43.10559648 12.49015496 -30.375 5.5078125 C-20.82946276 1.24325535 -10.4567817 -0.9913157 0 0 Z " fill="#000000" transform="translate(102,0)"/>
<path d="M0 0 C11.27267652 9.51381919 16.961701 19.62650857 20 34 C20 40.93 20 47.86 20 55 C-7.39 55 -34.78 55 -63 55 C-58.59572161 63.80855677 -55.16746404 70.10775052 -46.125 73.9375 C-36.49611778 76.61684114 -24.1024701 76.59569178 -15.05859375 72.22265625 C-11.86642453 70.32673791 -8.92550838 68.2895283 -6 66 C1.88042135 69.45969718 7.53481495 77.57840757 13 84 C7.97779362 93.37050648 -2.29274717 97.73448525 -12 101 C-30.0384429 106.40309054 -51.83251991 103.86715487 -68.35229492 95.31958008 C-81.75280991 87.93298705 -90.38387312 76.54328145 -95 62 C-97.92100347 49.11424794 -97.37129464 34.10646033 -92 22 C-91.59910156 21.06285156 -91.19820313 20.12570312 -90.78515625 19.16015625 C-83.53212948 4.17056759 -70.76358893 -3.80337281 -55.60546875 -9.23828125 C-37.12420941 -14.64134807 -15.4752189 -11.35138777 0 0 Z M-59 24 C-61.73357391 28.1273116 -63 31.00040149 -63 36 C-45.84 36 -28.68 36 -11 36 C-12.26557989 28.40652069 -15.22968741 22.79893489 -21.4375 18.0625 C-33.96051272 10.13308147 -49.46814151 13.15562826 -59 24 Z " fill="#000000" transform="translate(522,1052)"/>
<path d="M0 0 C12.06288762 12.76185868 13.01886563 26.78612102 12.91015625 43.46484375 C12.90642029 45.15591768 12.90357607 46.8469938 12.90158081 48.53807068 C12.89399024 52.96198637 12.8743817 57.38576812 12.85217285 61.80963135 C12.83161519 66.33465768 12.82255799 70.85970592 12.8125 75.38476562 C12.79113094 84.24355752 12.75598676 93.10221535 12.71484375 101.9609375 C2.15484375 101.9609375 -8.40515625 101.9609375 -19.28515625 101.9609375 C-19.33414063 97.68511719 -19.383125 93.40929687 -19.43359375 89.00390625 C-19.47821889 85.56651989 -19.52470939 82.12916985 -19.57244873 78.69182587 C-19.62212117 75.07884882 -19.668607 71.46589887 -19.70703125 67.8527832 C-19.74425902 64.36427691 -19.79071286 60.87599816 -19.84321976 57.38768959 C-19.87041612 55.42774106 -19.88837486 53.46767123 -19.90609741 51.50761414 C-19.88779023 36.7389318 -19.88779023 36.7389318 -26.28515625 23.9609375 C-33.16169724 18.76844737 -38.86749927 18.24323228 -47.28515625 18.9609375 C-53.33224901 20.36096176 -58.30904763 22.74551538 -62.00151062 27.85586548 C-66.95440623 35.97820216 -66.75173144 45.28352731 -66.796875 54.5 C-66.81375776 55.87577884 -66.83191272 57.2515426 -66.85127258 58.62728882 C-66.8983893 62.21428713 -66.92844452 65.80122427 -66.95471191 69.38842773 C-66.98471317 73.06245927 -67.03101866 76.73628484 -67.07617188 80.41015625 C-67.16328274 87.59376372 -67.22355439 94.77688552 -67.28515625 101.9609375 C-78.17515625 101.9609375 -89.06515625 101.9609375 -100.28515625 101.9609375 C-100.28515625 65.3309375 -100.28515625 28.7009375 -100.28515625 -9.0390625 C-89.72515625 -9.0390625 -79.16515625 -9.0390625 -68.28515625 -9.0390625 C-67.79015625 -4.0890625 -67.79015625 -4.0890625 -67.28515625 0.9609375 C-66.23328125 0.0740625 -65.18140625 -0.8128125 -64.09765625 -1.7265625 C-46.21092714 -15.15752279 -16.9292519 -15.10610169 0 0 Z " fill="#000000" transform="translate(416.28515625,870.0390625)"/>
<path d="M0 0 C11.55 0 23.1 0 35 0 C36.50691406 3.70089844 38.01382813 7.40179687 39.56640625 11.21484375 C40.78927574 14.21760669 42.01221161 17.22034257 43.23519135 20.22306061 C44.51446755 23.36405127 45.7936344 26.50508635 47.07250977 29.64624023 C52.68931438 43.44146531 58.31096379 57.23437746 64 71 C67.03404871 65.08807629 69.7321402 59.099563 72.30078125 52.97265625 C72.7002446 52.02547226 73.09970795 51.07828827 73.51127625 50.10240173 C74.78083367 47.09013982 76.046643 44.07631853 77.3125 41.0625 C78.15016265 39.0747737 78.98805147 37.0871427 79.82617188 35.09960938 C84.51759752 23.96826978 84.51759752 23.96826978 89.13037109 12.80419922 C89.61802193 11.61170815 89.61802193 11.61170815 90.11552429 10.39512634 C90.71826018 8.91725773 91.31866323 7.43843478 91.91633606 5.95851135 C93.89157625 1.10842375 93.89157625 1.10842375 95 0 C97.3756852 -0.0883967 99.72208674 -0.11530305 102.09765625 -0.09765625 C103.16094398 -0.09553383 103.16094398 -0.09553383 104.24571228 -0.09336853 C106.51801712 -0.08775443 108.79022475 -0.07519963 111.0625 -0.0625 C112.59960796 -0.05748681 114.13671745 -0.05292359 115.67382812 -0.04882812 C119.44925642 -0.03778042 123.22461171 -0.02050641 127 0 C122.78934339 11.30817477 118.08850282 22.39486004 113.375 33.5 C112.54339935 35.46361108 111.71202326 37.42731728 110.88085938 39.39111328 C109.14504886 43.49189419 107.40826476 47.59226083 105.67089844 51.69238281 C102.9863905 58.02973115 100.3086731 64.36993383 97.6328125 70.7109375 C97.19963715 71.73741394 96.76646179 72.76389038 96.32015991 73.82147217 C95.46432531 75.84963734 94.60852036 77.87781502 93.75274658 79.90600586 C91.76268851 84.62241924 89.77223745 89.33866638 87.78125 94.0546875 C87.44143097 94.86005951 87.10161194 95.66543152 86.75149536 96.49520874 C86.43195892 97.25201935 86.11242249 98.00882996 85.78320312 98.78857422 C85.37285828 99.76079422 85.37285828 99.76079422 84.95422363 100.75265503 C83.64399521 103.83844661 82.32058812 106.91862771 81 110 C69.45 110 57.9 110 46 110 C36.37589421 87.42598983 26.81083688 64.82883696 17.35253906 42.18481445 C14.05805987 34.29877548 10.76102991 26.4141236 7.421875 18.546875 C7.02172684 17.60387039 7.02172684 17.60387039 6.61349487 16.64181519 C5.41012576 13.80764457 4.20401901 10.97467345 2.99462891 8.14306641 C2.59163574 7.19608887 2.18864258 6.24911133 1.7734375 5.2734375 C1.42716309 4.46310059 1.08088867 3.65276367 0.72412109 2.81787109 C0 1 0 1 0 0 Z " fill="#000000" transform="translate(298,1043)"/>
<path d="M0 0 C0 10.23 0 20.46 0 31 C-3.96 31 -7.92 31 -12 31 C-20.66529651 32.52356862 -26.31274794 35.14833211 -32 42 C-35.4487445 48.06933653 -36.09834359 55.03637363 -36.20532227 61.91357422 C-36.22526749 63.05430389 -36.24521271 64.19503357 -36.26576233 65.37033081 C-36.29083107 67.19408737 -36.29083107 67.19408737 -36.31640625 69.0546875 C-36.33718735 70.31137238 -36.35796844 71.56805725 -36.37937927 72.86282349 C-36.43354612 76.18685701 -36.48383793 79.51090257 -36.53222656 82.83502197 C-36.58266495 86.23381708 -36.63818466 89.63252902 -36.69335938 93.03125 C-36.80104491 99.68743529 -36.90030355 106.34367108 -37 113 C-47.89 113 -58.78 113 -70 113 C-70 76.37 -70 39.74 -70 2 C-59.44 2 -48.88 2 -38 2 C-37.505 7.445 -37.505 7.445 -37 13 C-35.6078125 11.6696875 -35.6078125 11.6696875 -34.1875 10.3125 C-24.24845146 1.8533098 -12.66272595 0 0 0 Z " fill="#000000" transform="translate(237,859)"/>
<path d="M0 0 C0 9.9 0 19.8 0 30 C-4.62 30.33 -9.24 30.66 -14 31 C-21.37267228 32.77317435 -27.06580196 35.45154711 -31.28515625 41.9921875 C-34.22672409 47.58011208 -35.11076458 52.6752943 -35.20532227 58.98364258 C-35.22526749 60.16448929 -35.24521271 61.345336 -35.26576233 62.56196594 C-35.28247482 63.82671249 -35.29918732 65.09145905 -35.31640625 66.39453125 C-35.33718735 67.69702316 -35.35796844 68.99951508 -35.37937927 70.34147644 C-35.43438184 73.79209263 -35.48388659 77.24276635 -35.53222656 80.69348145 C-35.58260164 84.21953397 -35.63815363 87.74550472 -35.69335938 91.27148438 C-35.8011605 98.18092629 -35.90035274 105.09041641 -36 112 C-46.89 112 -57.78 112 -69 112 C-69 75.7 -69 39.4 -69 2 C-58.44 2 -47.88 2 -37 2 C-36.505 6.95 -36.505 6.95 -36 12 C-34.865625 11.0925 -33.73125 10.185 -32.5625 9.25 C-22.37522085 1.64541134 -12.67431202 0 0 0 Z " fill="#000000" transform="translate(235,1041)"/>
<path d="M0 0 C10.89 0 21.78 0 33 0 C33 36.3 33 72.6 33 110 C22.11 110 11.22 110 0 110 C0 73.7 0 37.4 0 0 Z " fill="#000000" transform="translate(253,1043)"/>
<path d="M0 0 C10.56 0 21.12 0 32 0 C32 36.63 32 73.26 32 111 C21.44 111 10.88 111 0 111 C0 74.37 0 37.74 0 0 Z " fill="#000000" transform="translate(255,861)"/>
<path d="M0 0 C4.17411208 2.57627993 6.77263844 5.89669616 8.4375 10.5 C9.29065957 15.75485896 9.25651064 20.65047558 6.75 25.4375 C3.26524512 30.05244565 -0.09864241 32.66570495 -5.5625 34.5 C-13.10812719 35.33088853 -20.42271645 35.4060209 -26.5625 30.5 C-30.62714924 26.56778294 -32.37432176 22.46658928 -32.69140625 16.8359375 C-32.42723172 12.04877474 -31.35136766 7.60666077 -28.19921875 3.89453125 C-20.72794398 -2.68868502 -9.12156702 -3.93411097 0 0 Z " fill="#000000" transform="translate(281.5625,993.5)"/>
<path d="M0 0 C3.57473291 2.06897725 6.19951399 3.98596615 7.9453125 7.78515625 C9.45801323 13.65486121 9.71641839 20.33302141 7 25.875 C2.69464174 31.14906387 -1.69317926 33.96393322 -8.5 34.875 C-15.76592212 35.25389778 -21.81970046 33.71411552 -27.5 28.9375 C-31.63322762 23.71658091 -32.1259013 19.35248083 -31.88671875 12.74609375 C-31.18362685 7.63980006 -28.72743064 5.0705129 -25.0625 1.6875 C-17.44167943 -3.51696283 -8.35761287 -3.7640212 0 0 Z " fill="#000000" transform="translate(282.5,812.0625)"/>
</svg>
